<?xml version="1.0" encoding="UTF-8"?>
<svg id="LOGO" xmlns="http://www.w3.org/2000/svg" viewBox="0 0 501.08 372.86">
  <defs>
    <style>
      .cls-1, .cls-2 {
        stroke: #000;
      }

      .cls-1, .cls-2, .cls-3 {
        stroke-miterlimit: 10;
      }

      .cls-2 {
        stroke-width: 2.11px;
      }

      .cls-2, .cls-4, .cls-3 {
        fill: none;
      }

      .cls-5 {
        font-family: MyriadPro-Regular, 'Myriad Pro';
        font-size: 14.05px;
      }

      .cls-3 {
        stroke: #a1ff35;
        stroke-width: 1.86px;
      }
    </style>
  </defs>
  <line class="cls-3" x1="140.36" y1="133.1" x2="140.35" y2="133.1"/>
  <polygon points="163.85 243.79 66.57 244.27 52.42 217 125.82 170.52 163.85 243.79"/>
  <polygon points="295.52 244.17 220.04 244.41 198.12 244.41 140.36 133.1 213.65 86.41 295.52 244.17"/>
  <ellipse class="cls-4" cx="43.85" cy="323.12" rx="25.17" ry="27.08"/>
  <path class="cls-4" d="m167.35,323.12c0,14.95-11.26,27.08-25.16,27.08s-25.17-12.13-25.17-27.08,11.27-27.08,25.17-27.08,25.16,12.12,25.16,27.08Z"/>
  <path class="cls-4" d="m297.9,323.12c0,14.95-11.26,27.08-25.16,27.08s-25.17-12.13-25.17-27.08,11.27-27.08,25.17-27.08,25.16,12.12,25.16,27.08Z"/>
  <path class="cls-4" d="m395.73,323.12c0,14.95-11.27,27.08-25.17,27.08s-25.16-12.13-25.16-27.08,11.26-27.08,25.16-27.08,25.17,12.12,25.17,27.08Z"/>
  <path d="m69.02,276.92v9.76c-7.3-7.02-16.7-11.25-26.96-11.25-23.23,0-42.06,21.66-42.06,48.37s18.83,48.37,42.06,48.37c10.26,0,19.66-4.23,26.96-11.25v8.18h20.1v-92.18h-20.1Zm-25.17,73.28c-13.9,0-25.17-12.13-25.17-27.08s11.27-27.08,25.17-27.08,25.17,12.12,25.17,27.08-11.27,27.08-25.17,27.08Z"/>
  <ellipse class="cls-4" cx="43.85" cy="323.12" rx="25.17" ry="27.08"/>
  <path class="cls-4" d="m167.35,323.12c0,14.95-11.26,27.08-25.16,27.08s-25.17-12.13-25.17-27.08,11.27-27.08,25.17-27.08,25.16,12.12,25.16,27.08Z"/>
  <path d="m297.9,244.41v40.54c-7.37-5.98-16.51-9.52-26.39-9.52-24.47,0-44.3,21.66-44.3,48.37s19.83,48.37,44.3,48.37c9.88,0,19.02-3.54,26.39-9.52v6.45h20.14v-124.69h-20.14Zm-25.16,105.79c-13.9,0-25.17-12.13-25.17-27.08s11.27-27.08,25.17-27.08,25.16,12.12,25.16,27.08-11.26,27.08-25.16,27.08Z"/>
  <path class="cls-4" d="m297.9,323.12c0,14.95-11.26,27.08-25.16,27.08s-25.17-12.13-25.17-27.08,11.27-27.08,25.17-27.08,25.16,12.12,25.16,27.08Z"/>
  <path d="m167.35,243.7v39.43c-7.08-5.29-15.65-8.38-24.87-8.38-24.4,0-44.19,21.65-44.19,48.37s19.79,48.36,44.19,48.36c9.22,0,17.79-3.09,24.87-8.38v6h19.33v-125.4h-19.33Zm-25.16,106.5c-13.9,0-25.17-12.13-25.17-27.08s11.27-27.08,25.17-27.08,25.16,12.12,25.16,27.08-11.26,27.08-25.16,27.08Z"/>
  <polygon points="220.04 244.41 220.04 266.73 197.73 266.73 197.73 244.41 198.12 244.41 198.16 244.48 220.04 244.41"/>
  <polygon class="cls-4" points="220.04 244.41 198.16 244.48 198.12 244.41 220.04 244.41"/>
  <rect x="197.73" y="275.43" width="20.6" height="93.67"/>
  <path d="m395.73,277.03v7.65c-7.15-5.4-15.82-8.56-25.17-8.56-24.46,0-44.3,21.66-44.3,48.37s19.84,48.37,44.3,48.37c9.35,0,18.02-3.16,25.17-8.56v4.9h20.11v-92.17h-20.11Zm-25.17,73.17c-13.9,0-25.16-12.13-25.16-27.08s11.26-27.08,25.16-27.08,25.17,12.12,25.17,27.08-11.27,27.08-25.17,27.08Z"/>
  <path class="cls-4" d="m395.73,323.12c0,14.95-11.27,27.08-25.17,27.08s-25.16-12.13-25.16-27.08,11.26-27.08,25.16-27.08,25.17,12.12,25.17,27.08Z"/>
  <path d="m500.83,345.1c-.72,5.54-3.3,11.25-5.49,14.02-4.78,6.03-12.7,8.98-14.34,9.59-9.02,3.35-22.59,4.38-33.45,0-6.47-2.61-11.17-4.6-14.62-8.84-6.89-8.46-8.64-19.73-8.64-19.73l22.94-.16s-.78,5.69,2.92,9.45c3.81,3.86,12.13,5.44,15.08,5.36,4.02-.11,9.55.54,12.86-9.63,1.48-4.52-4.15-7.5-6.25-8.58-5.23-2.69-14.23-3.99-16.96-4.57-3.38-.73-7.1-1.51-11.15-2.38-18.66-4.02-18.98-20.71-15.93-32.13,1.64-6.17,4.69-10.37,5.41-11.2.43-.5,7.97-13.85,36.32-10.67,28.35,3.19,28.04,30.27,28.04,30.27h-20.71s0-6.65-4.54-9.94c-2.55-1.85-13.57-5.13-19.2.08-9.6,8.89-.28,11.65,1.76,12.25,5.82,1.71,23.89,5.41,33.77,9.55,5.77,2.42,10.58,12.05,10.58,12.05l1.2,4.3s1.13,5.37.4,10.91Z"/>
  <g>
    <line class="cls-1" x1="296.15" y1="1.08" x2="223.19" y2="46.8"/>
    <line class="cls-1" x1="223.19" y1="46.8" x2="325.43" y2="243.79"/>
    <line class="cls-1" x1="422.92" y1="243.72" x2="378.38" y2="158.48"/>
    <line class="cls-1" x1="296.2" y1="1.19" x2="296.15" y2="1.09"/>
    <polygon class="cls-1" points="423.33 244.17 347.85 244.46 325.93 244.48 268.1 133.2 268.14 133.17 223.64 47.41 296.2 1.19 340.91 86.75 378.38 158.48 378.8 158.48 423.33 244.17"/>
    <polygon class="cls-1" points="378.8 158.48 378.38 158.48 340.91 86.75 296.2 1.19 296.93 .72 378.8 158.48"/>
    <polygon class="cls-1" points="378.79 158.48 378.38 158.48 340.91 86.75 341.36 86.46 378.79 158.48"/>
  </g>
  <g>
    <ellipse class="cls-2" cx="484.02" cy="255.57" rx="10.51" ry="10.26"/>
    <text class="cls-5" transform="translate(478.42 260) scale(1.42 1)"><tspan x="0" y="0">R</tspan></text>
  </g>
</svg>